<?xml version="1.0" encoding="utf-8"?>
<!-- Generator: Adobe Illustrator 24.1.3, SVG Export Plug-In . SVG Version: 6.00 Build 0)  -->
<svg version="1.1" xmlns="http://www.w3.org/2000/svg" xmlns:xlink="http://www.w3.org/1999/xlink" x="0px" y="0px"
	 viewBox="0 0 279.8 47.4" width="279.8" height="47.4" style="enable-background:new 0 0 279.8 47.4;" xml:space="preserve">
<style type="text/css">
	.st0{fill:#5D5D5D;}
	.st1{fill:#3F3F3F;}
	.st2{clip-path:url(#SVGID_2_);fill:url(#SVGID_3_);}
	.st3{clip-path:url(#SVGID_5_);fill:url(#SVGID_6_);}
	.st4{clip-path:url(#SVGID_8_);fill:url(#SVGID_9_);}
	.st5{clip-path:url(#SVGID_11_);fill:url(#SVGID_12_);}
	.st6{clip-path:url(#SVGID_14_);fill:url(#SVGID_15_);}
	.st7{clip-path:url(#SVGID_17_);fill:url(#SVGID_18_);}
	.st8{clip-path:url(#SVGID_20_);fill:url(#SVGID_21_);}
	.st9{clip-path:url(#SVGID_23_);fill:url(#SVGID_24_);}
	.st10{clip-path:url(#SVGID_26_);fill:url(#SVGID_27_);}
</style>
<g id="圖層_1">
	<path class="st0" d="M185.6,8.5c0,0,3.3-0.3,4,3.1s-1.1,5.2-2.3,6.2c0,0-1,1-2.3,1.5l-0.9,0.3c0,0,2.5,0.1,4.3-1.8s2.5-4.5,1.8-7.3
		S185.5,8.5,185.6,8.5z"/>
	<path class="st0" d="M179.8,14.3c0,0,1.3-2.4,2.8-3.7c0,0,1.6-2.1,4.3-2c0,0,1.2,0,1.9,0.2c0,0-2.9-1-4.7,0S180.3,12.6,179.8,14.3z
		"/>
	<path class="st1" d="M181.9,23.4c2.8,4.6,7.1,8.2,12.1,10.4l-0.2,0.4c-2.4,0.5-4.1,2.5-4.9,5.2c-5.9-5.3-9.3-11.5-10.9-24.6v21.9
		c0,3.9-0.9,6-7.4,6.6c-0.2-1.9-0.4-3.2-1.2-4.1c-0.8-0.9-1.7-1.5-4.1-1.9v-0.5c0,0,5,0.3,6,0.3c0.7,0,0.9-0.2,0.9-0.7V19.4
		c-0.2,0-0.5,0.1-0.8,0.1c-1.8,7.9-5.9,15.5-15.1,19.9L156,39c5.6-5,8.5-12.8,9.6-20.3h-8.2l-0.4-1.1h8.3l2.8-2.9l4.1,3.5V5.8
		l7.2,0.7C179.3,7,179,7.4,178,7.5v4.6C178.7,16.2,179.2,19.1,181.9,23.4"/>
	<path class="st1" d="M226.8,32.6c0,0.4-2.3,1.5-4.2,1.5h-0.9V19.7c-0.2,0.2-0.5,0.3-0.8,0.2h-7.1v2.6c11.2,3.1,6.3,11.8,1.9,7.9
		c-0.2-2.3-0.8-4.6-1.9-6.7v17.9c0,0.4-1.8,1.6-4.5,1.6h-1V29.2c-2.4,3-5.3,5.6-8.6,7.7l-0.4-0.4c3.7-4.3,6.4-10.7,7.8-16.6h-6.5
		l-0.3-1.1h7.9v-6.1c-2.7,0.2-5.5,0.4-8.2,0.5l-0.1-0.4c5.3-1.8,10.4-4.2,15.2-7.1l6.1,5.5c-0.6,0.4-1.6,0.5-3.1,0
		c-1.3,0.3-2.8,0.5-4.4,0.8v6.7h0.8l2.7-3.9c0,0,2.7,2.4,4.4,4.1V8.9l6.6,0.6c-0.1,0.5-0.4,1-1.5,1.1L226.8,32.6z M237,6.9
		c-0.1,0.6-0.5,1-1.4,1.1v28.6c0,3.7-0.8,5.7-6.9,6.2c-0.1-1.8-0.3-3.1-1-3.9c-0.7-0.8-1.6-1.5-3.7-1.8v-0.5c0,0,4.4,0.3,5.3,0.3
		c0.6,0,0.8-0.2,0.8-0.7v-30L237,6.9z"/>
	<path class="st1" d="M279.5,22.9c-0.4,0.4-1,0.7-1.6,0.7c-0.2,12.1-0.6,16.1-2.7,17.9c-1.3,1.1-3,1.7-5.5,1.7c0-1.7-0.1-3-0.7-3.8
		c-0.9-0.9-2-1.6-3.3-1.8v-0.4c1.3,0.1,3.4,0.2,4.1,0.2c0.4,0,0.9-0.1,1.2-0.4c0.9-0.9,1.2-5.1,1.3-14.4H253
		c-0.2,7-1.6,15.1-10.3,20.4l-0.3-0.2c4.5-6.6,4.9-14.9,4.9-22.7V6.9l6.6,2.2h14.7l2.5-2.7l5.2,3.9c-0.4,0.5-0.9,0.8-1.5,0.9v6.8
		c0,0.3-2.9,1.1-4.8,1.1h-1V17H253v4.6h19l2.8-2.8L279.5,22.9z M253,10.2v5.7h15.9v-5.7L253,10.2z M268.6,35.3
		c0,0.4-2.6,1.4-4.3,1.4h-1v-2.2h-4V37c0,0.4-2.3,1.5-4.4,1.5h-0.7V24.4l5.3,2.1h3.4l2.3-2.4l4.6,3.5c-0.3,0.3-0.8,0.6-1.2,0.7
		L268.6,35.3L268.6,35.3z M263.3,33.4v-5.8h-4v5.7L263.3,33.4z"/>
	<path class="st1" d="M74.9,10.1c0,0,1.4,1,2.2,1.7c0,0.2-0.2,0.2-0.5,0.2h-14l-0.1-0.4h6.4c-0.2-0.7-0.5-1.4-1.1-1.9l0.1-0.1
		c3.2-0.4,3.5,1.3,2.7,2h3.1L74.9,10.1z M74.9,16.2l2.1,1.6c-0.2,0.2-0.4,0.3-0.6,0.3v4c0,1.3-0.3,2.1-2.7,2.3c0-0.5-0.1-1-0.3-1.5
		c-0.3-0.4-0.7-0.6-1.2-0.7v0c-0.4,0.1-0.7,0.2-1.1,0.2h-0.4v-0.7h-1.8v0.4c0,0.2-0.9,0.6-1.7,0.6h-0.3v-4.6l2.1,0.8h1.6l0.9-1
		l1.9,1.4c-0.1,0.2-0.3,0.3-0.6,0.3v2.2c0,0-0.1,0.1-0.3,0.2c0.4,0,1.1,0.1,1.4,0.1c0.3,0,0.3-0.1,0.3-0.3v-4.1h-8.6v5.9
		c0,0.2-1,0.7-1.9,0.7h-0.3v-7.9l2.4,0.9H74L74.9,16.2z M71.7,16.8V16h-3.8v0.3c-0.5,0.5-1.2,0.7-1.9,0.7h-0.3v-4.5l2.3,0.9h3.6
		l1-1.1l2,1.5c-0.2,0.2-0.4,0.3-0.6,0.3v2.2c-0.6,0.3-1.2,0.4-1.8,0.4L71.7,16.8z M71.7,15.5v-1.8h-3.8v1.8L71.7,15.5z M70.7,19.4
		h-1.8v1.8h1.8V19.4z"/>
	<path class="st1" d="M91.1,21.3c0,0,1.1,0.9,1.8,1.6c0,0.2-0.2,0.2-0.4,0.2h-5v0.7c0,0.1-0.6,0.6-1.7,0.6h-0.4v-8.6
		c-0.4,0.5-0.8,1-1.3,1.4l-0.2-0.1c0.6-1.3,1.1-2.6,1.4-4c-0.1,0-0.2,0.1-0.3,0.1h-3.2c-0.5,3.4-1.4,7.4-3.8,10.3l-0.2-0.1
		c1.2-3,1.7-6.8,1.9-10.2h-1.6l-0.1-0.4h1.8c0-1.1,0-2.2,0-3.2l2.9,0.2c0,0.2-0.1,0.4-0.6,0.4c-0.1,0.8-0.1,1.6-0.2,2.5h0.8l1-1.3
		c0,0,1,0.8,1.7,1.5c0.3-1.1,0.4-2.2,0.6-3.3l2.4,0.6C88.1,10,88,9.7,87.9,9.5L88,9.5c4.2,1.1,2,4.3,0.4,2.7c0-0.5,0-1-0.1-1.5
		c-0.1,0-0.2,0.1-0.3,0.1c-0.2,0.7-0.5,1.4-0.9,2l0.4,0.1h2.4l1-1.3c0,0,1.1,1,1.7,1.6c0,0.2-0.2,0.2-0.4,0.2h-2v2.7l0.8-1.2
		c0,0,0.9,0.8,1.5,1.4c0,0.2-0.2,0.2-0.4,0.2h-1.9v2.8l0.8-1.2c0,0,0.9,0.8,1.5,1.4c0,0.2-0.2,0.3-0.4,0.3H90v2.7L91.1,21.3z
		 M82.7,18.3c4.1,2.5,2.2,6.1,0.6,4.4c0-0.5,0-1-0.1-1.4c-0.6,0.5-1.2,1-1.8,1.5c-0.1,0.3-0.3,0.6-0.6,0.7l-0.9-2.4
		c0.2,0,0.4-0.1,0.6-0.3c0.8-2,1.3-4.2,1.5-6.3l2.6,0.5c-0.1,0.2-0.3,0.4-0.5,0.4c-0.4,1-0.8,2-1.4,3L82.7,18.3z M83.1,20.7
		c-0.1-0.8-0.3-1.5-0.6-2.3c-0.4,0.9-0.9,1.8-1.5,2.6C81.6,20.9,82.4,20.9,83.1,20.7L83.1,20.7z M87.4,16.1h0.8v-2.7h-0.8V16.1z
		 M88.2,16.5h-0.8v2.8h0.8V16.5z M87.4,22.6h0.8v-2.9h-0.8V22.6z"/>
	<path class="st1" d="M106.1,10.7c0,0,1.4,1,2.2,1.8c0,0.2-0.2,0.3-0.5,0.3H102v2h1.9l1-1.1l2.1,1.6c-0.2,0.2-0.4,0.3-0.6,0.3V20
		c0,1.4-0.3,2.2-2.6,2.4c0-0.5-0.1-1.1-0.3-1.5c-0.2-0.4-0.7-0.7-1.1-0.7v-0.2c0,0,1.1,0.1,1.5,0.1c0.2,0,0.3-0.1,0.3-0.3v-4.5h-2
		v8.6c0,0.1-0.7,0.6-1.9,0.6h-0.4v-9.2h-2.1v6.3c0,0.2-1,0.7-1.9,0.7h-0.3v-8.4l2.4,0.9h1.9v-2h-6.1l-0.1-0.4h11.4L106.1,10.7z
		 M99,9.5c5.1-0.3,3.3,3.7,1.1,2.4C99.8,11.1,99.4,10.3,99,9.5L99,9.5z"/>
	<path class="st1" d="M122.6,13.7c-0.1,2.3-0.9,4.4-2.1,6.3c1,1,2.1,1.8,3.4,2.3l0,0.2c-1,0.2-1.8,0.9-2,1.9
		c-1.1-0.8-1.9-1.8-2.6-2.9c-1.6,1.5-3.5,2.5-5.6,3l-0.1-0.2c2.1-0.9,3.8-2.5,4.9-4.5c-0.5-1.4-0.9-2.8-1.1-4.3
		c-0.5,0.7-1.1,1.2-1.7,1.8l-0.2-0.1c0.1-0.3,0.3-0.6,0.4-0.9h-1.6v4.1c0.9-0.2,1.8-0.4,2.7-0.6v0.2c-2.2,1.3-4.5,2.5-6.8,3.5
		c-0.1,0.2-0.2,0.4-0.4,0.4l-1.1-2.4c0.3,0,0.6-0.1,0.9-0.2v-7.5l2.3,0.2c0,0.2-0.1,0.3-0.4,0.3v6.6l0.8-0.2v-9h-3.1l-0.1-0.4h5
		l1.1-1.4c0,0,1.2,1,1.9,1.6c-0.1,0.2-0.2,0.3-0.4,0.3h-2.2v3.8l0.9-1.2c0,0,0.5,0.5,1,1c0.6-1.8,1-3.7,1.2-5.7l3.1,0.7
		c-0.1,0.2-0.2,0.3-0.6,0.4c-0.3,0.9-0.6,1.7-1,2.6h2l1.1-1.5c0,0,1.2,1,2,1.6c0,0.2-0.2,0.3-0.5,0.3L122.6,13.7z M118.7,13.7
		c-0.3,0.5-0.6,1-0.9,1.4c0.3,1.1,0.8,2.2,1.4,3.2c0.6-1.5,0.9-3.1,0.9-4.7H118.7z"/>
	<path class="st1" d="M132.3,13.4c0,0.2-0.2,0.3-0.6,0.3c-0.4,0.7-0.7,1.4-1.2,2l0.9,0.3c0,0.1-0.2,0.2-0.5,0.3v7.4
		c-0.5,0.4-1.1,0.6-1.7,0.5h-0.4v-6.5c-0.2,0.2-0.5,0.5-0.7,0.7l-0.2-0.1c0.8-1.9,1.4-3.9,1.7-5.9h-1.6v3.6c0,2.6-0.2,6.1-3.4,8.3
		l-0.1-0.1c1.2-2.4,1.3-5.5,1.3-8.2v-4.9l2.6,0.9h3.5h0c-0.2-0.9-0.6-1.8-1.2-2.4l0.1-0.1c3.5,0,3.7,1.8,2.8,2.5h2.8l1.1-1.5
		c0,0,1.2,1,1.9,1.7c0,0.2-0.2,0.2-0.4,0.2h-8.9L132.3,13.4z M137.8,14.2c0,0,1,1,1.5,1.7c0,0.2-0.2,0.2-0.4,0.2h-1.8v5.8
		c0,1.5-0.3,2.3-2.7,2.5c0-0.5-0.1-1.1-0.4-1.5c-0.4-0.4-0.9-0.7-1.5-0.7v-0.2c0,0,1.8,0.1,2.2,0.1s0.3-0.1,0.3-0.3v-5.6h-3.4
		l-0.1-0.4h3.5v-3l2.7,0.2c0,0.2-0.2,0.4-0.6,0.4v2L137.8,14.2z M132.1,16.8c4.3,1.5,2.1,4.8,0.5,3.2c0-1.1-0.2-2.1-0.6-3.1
		L132.1,16.8z"/>
	<path class="st1" d="M62,34h-0.5l-0.9-2.9c0-0.1-0.1-0.3-0.1-0.5c0-0.1-0.1-0.2-0.1-0.4c0,0.3-0.1,0.6-0.2,0.9L59.3,34h-0.5
		l-1.1-4.4h0.5l0.7,2.7c0.1,0.4,0.2,0.7,0.2,1c0.1-0.4,0.1-0.7,0.2-1.1l0.8-2.7h0.5l0.8,2.7c0.1,0.3,0.2,0.7,0.2,1.1
		c0.1-0.3,0.1-0.7,0.2-1l0.7-2.7h0.5L62,34z"/>
	<path class="st1" d="M66.6,34L66,32.6h-1.8L63.7,34h-0.5l1.8-4.4h0.4l1.7,4.4L66.6,34z M65.9,32.2l-0.5-1.4
		c-0.1-0.2-0.1-0.4-0.2-0.6c-0.1,0.2-0.1,0.4-0.2,0.6l-0.5,1.4L65.9,32.2z"/>
	<polygon class="st1" points="69.1,34 68.6,34 68.6,30 67.2,30 67.2,29.6 70.5,29.6 70.5,30.1 69.1,30.1 	"/>
	<polygon class="st1" points="73.6,34 71.1,34 71.1,29.6 73.6,29.6 73.6,30.1 71.7,30.1 71.7,31.5 73.5,31.5 73.5,31.9 71.7,31.9 
		71.7,33.5 73.6,33.5 	"/>
	<path class="st1" d="M75.1,32.2V34h-0.5v-4.4h1.2c0.4,0,0.8,0.1,1.2,0.3c0.3,0.2,0.4,0.6,0.4,0.9c0,0.6-0.4,1-0.9,1.2l1.2,2h-0.6
		L76,32.2L75.1,32.2z M75.1,31.8h0.7c0.3,0,0.6-0.1,0.8-0.2c0.2-0.2,0.3-0.4,0.3-0.6c0-0.2-0.1-0.5-0.3-0.6
		c-0.2-0.1-0.5-0.2-0.8-0.2h-0.7L75.1,31.8z"/>
	<path class="st1" d="M80.5,32.2V34h-0.5v-4.4h1.2c0.4,0,0.8,0.1,1.2,0.3c0.3,0.2,0.4,0.6,0.4,0.9c0,0.6-0.4,1.1-0.9,1.2l1.2,2h-0.6
		l-1.1-1.8L80.5,32.2L80.5,32.2z M80.5,31.8h0.7c0.3,0,0.6-0.1,0.8-0.2c0.2-0.2,0.3-0.4,0.2-0.6c0-0.2-0.1-0.5-0.2-0.6
		c-0.3-0.1-0.5-0.2-0.8-0.2h-0.7L80.5,31.8L80.5,31.8z"/>
	<polygon class="st1" points="86.2,34 83.7,34 83.7,29.6 86.2,29.6 86.2,30.1 84.2,30.1 84.2,31.5 86.1,31.5 86.1,31.9 84.2,31.9 
		84.2,33.5 86.2,33.5 	"/>
	<path class="st1" d="M89.6,32.8c0,0.4-0.1,0.7-0.4,0.9c-0.3,0.2-0.7,0.3-1.1,0.3c-0.4,0-0.8,0-1.2-0.2v-0.5
		c0.4,0.2,0.8,0.2,1.2,0.2c0.3,0,0.6,0,0.8-0.2c0.2-0.1,0.3-0.3,0.3-0.5c0-0.1,0-0.3-0.1-0.4c-0.1-0.1-0.2-0.2-0.3-0.3
		c-0.2-0.1-0.4-0.2-0.7-0.3c-0.3-0.1-0.6-0.3-0.9-0.5c-0.2-0.2-0.3-0.5-0.3-0.8c0-0.3,0.1-0.6,0.4-0.8c0.3-0.2,0.6-0.3,1-0.3
		c0.4,0,0.8,0.1,1.2,0.2l-0.2,0.4c-0.3-0.1-0.7-0.2-1-0.2c-0.2,0-0.4,0.1-0.6,0.2c-0.2,0.1-0.2,0.3-0.2,0.5c0,0.1,0,0.3,0.1,0.4
		c0.1,0.1,0.2,0.2,0.3,0.3c0.2,0.1,0.4,0.2,0.6,0.3c0.4,0.1,0.7,0.3,0.9,0.5C89.6,32.3,89.7,32.6,89.6,32.8"/>
	<path class="st1" d="M94.3,31.8c0,0.6-0.2,1.2-0.5,1.7c-0.4,0.4-0.9,0.6-1.5,0.6c-0.6,0-1.1-0.2-1.5-0.6c-0.4-0.5-0.6-1.1-0.5-1.7
		c0-0.6,0.2-1.2,0.5-1.7c0.4-0.4,0.9-0.6,1.5-0.6c0.6,0,1.1,0.2,1.5,0.6C94.2,30.6,94.4,31.2,94.3,31.8 M90.8,31.8
		c0,0.5,0.1,1,0.4,1.4c0.3,0.3,0.7,0.5,1.1,0.5c0.4,0,0.8-0.2,1.1-0.5c0.3-0.4,0.4-0.9,0.4-1.4c0-0.5-0.1-0.9-0.4-1.3
		c-0.3-0.3-0.7-0.5-1.1-0.5c-0.4,0-0.8,0.1-1.1,0.5C90.9,30.8,90.8,31.3,90.8,31.8"/>
	<path class="st1" d="M98.6,29.6v2.8c0,0.4-0.1,0.9-0.5,1.2c-0.3,0.3-0.8,0.4-1.2,0.4c-0.5,0-0.9-0.1-1.2-0.4
		c-0.3-0.3-0.5-0.7-0.4-1.2v-2.8h0.5v2.9c0,0.3,0.1,0.6,0.3,0.8c0.2,0.2,0.6,0.3,0.9,0.3c0.3,0,0.6-0.1,0.9-0.3
		c0.2-0.2,0.3-0.5,0.3-0.9v-2.9L98.6,29.6L98.6,29.6z"/>
	<path class="st1" d="M100.3,32.2V34h-0.5v-4.4h1.2c0.4,0,0.8,0.1,1.2,0.3c0.3,0.2,0.4,0.6,0.4,0.9c0,0.6-0.4,1.1-0.9,1.2l1.2,2
		h-0.6l-1.1-1.8L100.3,32.2L100.3,32.2z M100.3,31.8h0.7c0.3,0,0.6-0.1,0.8-0.2c0.2-0.2,0.3-0.4,0.3-0.6c0-0.2-0.1-0.5-0.3-0.6
		c-0.3-0.1-0.5-0.2-0.8-0.2h-0.7L100.3,31.8L100.3,31.8z"/>
	<path class="st1" d="M105.4,30c-0.4,0-0.9,0.2-1.1,0.5c-0.5,0.8-0.5,1.8,0,2.6c0.3,0.3,0.7,0.5,1.1,0.5c0.4,0,0.7-0.1,1-0.2v0.5
		c-0.4,0.1-0.7,0.2-1.1,0.2c-0.6,0-1.1-0.2-1.5-0.6c-0.4-0.5-0.6-1.1-0.5-1.7c0-0.4,0.1-0.8,0.2-1.2c0.2-0.3,0.4-0.6,0.7-0.8
		c0.3-0.2,0.7-0.3,1.1-0.3c0.4,0,0.8,0.1,1.2,0.3l-0.2,0.4C106.1,30.1,105.8,30,105.4,30"/>
	<polygon class="st1" points="109.9,34 107.4,34 107.4,29.6 109.9,29.6 109.9,30.1 108,30.1 108,31.5 109.8,31.5 109.8,31.9 
		108,31.9 108,33.5 109.9,33.5 	"/>
	<path class="st1" d="M113.3,32.8c0,0.3-0.1,0.7-0.4,0.9c-0.3,0.2-0.7,0.3-1.1,0.3c-0.4,0-0.8,0-1.2-0.2v-0.5
		c0.4,0.2,0.8,0.2,1.2,0.2c0.3,0,0.6,0,0.8-0.2c0.2-0.1,0.3-0.3,0.3-0.5c0-0.1,0-0.3-0.1-0.4c-0.1-0.1-0.2-0.2-0.3-0.3
		c-0.2-0.1-0.4-0.2-0.7-0.3c-0.3-0.1-0.6-0.3-0.9-0.5c-0.2-0.2-0.3-0.5-0.3-0.8c0-0.3,0.1-0.6,0.4-0.8c0.3-0.2,0.7-0.3,1-0.3
		c0.4,0,0.8,0.1,1.2,0.2l-0.2,0.4c-0.3-0.1-0.7-0.2-1.1-0.2c-0.2,0-0.4,0.1-0.6,0.2c-0.1,0.1-0.2,0.3-0.2,0.5c0,0.3,0.1,0.5,0.4,0.6
		c0.2,0.1,0.4,0.2,0.6,0.3c0.4,0.1,0.7,0.3,1,0.5C113.3,32.3,113.4,32.6,113.3,32.8"/>
	<path class="st1" d="M115.8,29.6h1.2c0.4,0,0.9,0.1,1.3,0.3c0.3,0.2,0.4,0.5,0.4,0.8c0,0.2-0.1,0.5-0.2,0.6
		c-0.2,0.2-0.4,0.3-0.6,0.3c0.7,0.1,1,0.5,1,1c0,0.4-0.1,0.7-0.4,0.9c-0.3,0.2-0.7,0.4-1.1,0.3h-1.5L115.8,29.6z M116.3,31.5h0.8
		c0.3,0,0.6,0,0.8-0.2c0.2-0.1,0.3-0.4,0.2-0.6c0-0.2-0.1-0.4-0.3-0.5c-0.3-0.1-0.6-0.2-0.8-0.2h-0.8L116.3,31.5z M116.3,31.9v1.6
		h0.9c0.3,0,0.6,0,0.8-0.2c0.2-0.2,0.3-0.4,0.3-0.6c0-0.2-0.1-0.5-0.3-0.6c-0.2-0.1-0.5-0.2-0.8-0.2L116.3,31.9z"/>
	<path class="st1" d="M123.1,29.6v2.8c0,0.4-0.1,0.9-0.5,1.2c-0.3,0.3-0.8,0.4-1.2,0.4c-0.8,0.1-1.6-0.5-1.7-1.3c0-0.1,0-0.2,0-0.3
		v-2.8h0.5v2.9c0,0.3,0.1,0.6,0.3,0.8c0.2,0.2,0.6,0.3,0.9,0.3c0.3,0,0.6-0.1,0.9-0.3c0.2-0.2,0.3-0.5,0.3-0.9v-2.9L123.1,29.6
		L123.1,29.6z"/>
	<path class="st1" d="M124.8,32.2V34h-0.5v-4.4h1.2c0.4,0,0.8,0.1,1.2,0.3c0.3,0.2,0.4,0.6,0.4,0.9c0,0.6-0.3,1-0.9,1.2l1.2,2h-0.6
		l-1.1-1.8L124.8,32.2L124.8,32.2z M124.8,31.8h0.7c0.3,0,0.6-0.1,0.8-0.2c0.2-0.2,0.3-0.4,0.3-0.6c0-0.2-0.1-0.5-0.3-0.6
		c-0.2-0.1-0.5-0.2-0.8-0.2h-0.7L124.8,31.8L124.8,31.8z"/>
	<polygon class="st1" points="130.5,34 128.1,34 128.1,29.6 130.5,29.6 130.5,30.1 128.6,30.1 128.6,31.5 130.4,31.5 130.4,31.9 
		128.6,31.9 128.6,33.5 130.5,33.5 	"/>
	<path class="st1" d="M134.2,34l-0.5-1.4h-1.8l-0.5,1.4h-0.5l1.7-4.4h0.4l1.7,4.4L134.2,34z M133.5,32.2l-0.5-1.4
		c-0.1-0.2-0.1-0.4-0.2-0.6c0,0.2-0.1,0.4-0.2,0.6l-0.5,1.4H133.5z"/>
	<path class="st1" d="M138.7,29.6v2.8c0,0.4-0.1,0.9-0.5,1.2c-0.3,0.3-0.8,0.4-1.2,0.4c-0.5,0-0.9-0.1-1.2-0.4
		c-0.3-0.3-0.5-0.7-0.4-1.2v-2.8h0.5v2.9c0,0.3,0.1,0.6,0.3,0.8c0.2,0.2,0.6,0.3,0.9,0.3c0.6,0.1,1.1-0.3,1.2-0.9c0-0.1,0-0.2,0-0.2
		v-2.9L138.7,29.6L138.7,29.6z"/>
	<polygon class="st1" points="61.3,41.4 60.7,41.4 59.1,39.3 58.7,39.7 58.7,41.4 58.2,41.4 58.2,37 58.7,37 58.7,39.1 60.7,37 
		61.3,37 59.5,38.9 	"/>
	<path class="st1" d="M64.7,41.4L64.2,40h-1.8l-0.5,1.4h-0.5l1.8-4.4h0.4l1.7,4.4L64.7,41.4z M64,39.5l-0.5-1.4
		c-0.1-0.2-0.1-0.4-0.2-0.6c-0.1,0.2-0.1,0.4-0.2,0.6l-0.5,1.4H64z"/>
	<path class="st1" d="M69.6,39.2c0,0.6-0.2,1.2-0.5,1.7c-0.4,0.4-0.9,0.6-1.5,0.6c-0.6,0-1.1-0.2-1.5-0.6c-0.4-0.5-0.6-1.1-0.5-1.7
		c0-0.6,0.2-1.2,0.5-1.7c0.4-0.4,0.9-0.6,1.5-0.6c0.6,0,1.1,0.2,1.5,0.6C69.5,38,69.7,38.6,69.6,39.2 M66.1,39.2
		c0,0.5,0.1,1,0.4,1.4c0.6,0.6,1.6,0.6,2.2,0c0.3-0.4,0.4-0.9,0.4-1.4c0-0.5-0.1-0.9-0.4-1.3c-0.3-0.3-0.7-0.5-1.1-0.5
		c-0.4,0-0.8,0.1-1.1,0.5C66.2,38.2,66.1,38.7,66.1,39.2"/>
	<polygon class="st1" points="73.9,41.4 73.4,41.4 73.4,39.3 71.1,39.3 71.1,41.4 70.6,41.4 70.6,37 71.1,37 71.1,38.8 73.4,38.8 
		73.4,37 73.9,37 	"/>
	<path class="st1" d="M77.6,40.2c0,0.4-0.1,0.7-0.4,0.9c-0.3,0.2-0.7,0.3-1.1,0.3c-0.4,0-0.8,0-1.2-0.2v-0.5
		c0.2,0.1,0.4,0.1,0.6,0.2c0.2,0,0.4,0.1,0.6,0.1c0.3,0,0.6,0,0.8-0.2c0.2-0.1,0.2-0.3,0.2-0.5c0-0.1,0-0.3-0.1-0.4
		c-0.1-0.1-0.2-0.2-0.3-0.3c-0.2-0.1-0.4-0.2-0.7-0.3c-0.3-0.1-0.6-0.3-0.9-0.5c-0.2-0.2-0.3-0.5-0.3-0.8c0-0.3,0.1-0.6,0.4-0.8
		c0.3-0.2,0.6-0.3,1-0.3c0.4,0,0.8,0.1,1.2,0.2l-0.2,0.4c-0.3-0.1-0.7-0.2-1.1-0.2c-0.2,0-0.4,0.1-0.6,0.2c-0.2,0.1-0.2,0.3-0.2,0.5
		c0,0.1,0,0.3,0.1,0.4c0.1,0.1,0.2,0.2,0.3,0.3c0.2,0.1,0.4,0.2,0.6,0.3c0.3,0.1,0.7,0.3,0.9,0.5C77.5,39.7,77.6,40,77.6,40.2"/>
	<polygon class="st1" points="78.5,41.4 78.5,37 79,37 79,41.4 	"/>
	<path class="st1" d="M83.5,37v2.8c0,0.4-0.1,0.9-0.5,1.2c-0.3,0.3-0.8,0.4-1.2,0.4c-0.4,0-0.9-0.1-1.2-0.4
		c-0.3-0.3-0.5-0.7-0.4-1.2V37h0.5v2.9c0,0.3,0.1,0.6,0.3,0.8c0.2,0.2,0.6,0.3,0.9,0.3c0.3,0,0.6-0.1,0.8-0.3
		c0.2-0.2,0.3-0.5,0.3-0.8V37L83.5,37L83.5,37z"/>
	<path class="st1" d="M88.1,41.4h-0.6l-2.4-3.7c0,0.4,0,0.8,0,1.2v2.5h-0.5V37h0.6l2.4,3.7V37h0.5L88.1,41.4z"/>
	<path class="st1" d="M91.2,39.1h1.5v2.1c-0.2,0.1-0.5,0.1-0.7,0.2c-0.3,0-0.6,0.1-0.8,0.1c-0.6,0-1.2-0.2-1.6-0.6
		c-0.4-0.5-0.6-1.1-0.6-1.7c0-0.4,0.1-0.8,0.3-1.2c0.2-0.3,0.5-0.6,0.8-0.8c0.4-0.2,0.8-0.3,1.2-0.3c0.4,0,0.9,0.1,1.3,0.3l-0.2,0.5
		c-0.4-0.2-0.7-0.2-1.1-0.2c-0.5,0-0.9,0.1-1.2,0.5c-0.6,0.8-0.6,1.9,0,2.7c0.3,0.3,0.8,0.5,1.3,0.5c0.3,0,0.6,0,0.9-0.1v-1.3h-1
		L91.2,39.1z"/>
	<path class="st1" d="M97.3,37.4c-0.4,0-0.9,0.2-1.2,0.5c-0.3,0.4-0.5,0.8-0.4,1.3c0,0.5,0.1,0.9,0.4,1.3c0.3,0.3,0.7,0.5,1.2,0.5
		c0.4,0,0.7-0.1,1-0.2v0.5c-0.4,0.1-0.7,0.2-1.1,0.2c-0.6,0-1.1-0.2-1.5-0.6c-0.4-0.5-0.6-1.1-0.5-1.7c0-0.4,0.1-0.8,0.3-1.2
		c0.2-0.3,0.4-0.6,0.7-0.8c0.3-0.2,0.7-0.3,1.1-0.3c0.4,0,0.8,0.1,1.2,0.2l-0.2,0.4C98,37.5,97.6,37.4,97.3,37.4"/>
	<polygon class="st1" points="99.3,41.4 99.3,37 99.8,37 99.8,41.4 	"/>
	<polygon class="st1" points="102.3,41.4 101.8,41.4 101.8,37.4 100.4,37.4 100.4,37 103.7,37 103.7,37.4 102.3,37.4 	"/>
	<polygon class="st1" points="105.5,39.2 106.7,37 107.2,37 105.7,39.7 105.7,41.4 105.2,41.4 105.2,39.7 103.8,37 104.3,37 	"/>
	<path class="st1" d="M111.3,39.1h1.5v2.1c-0.2,0.1-0.5,0.1-0.7,0.2c-0.3,0-0.6,0.1-0.8,0.1c-0.6,0-1.1-0.2-1.5-0.6
		c-0.4-0.5-0.6-1.1-0.5-1.7c0-0.4,0.1-0.8,0.3-1.2c0.2-0.3,0.5-0.6,0.8-0.8c0.4-0.2,0.8-0.3,1.2-0.3c0.4,0,0.9,0.1,1.3,0.2l-0.2,0.5
		c-0.4-0.2-0.7-0.2-1.1-0.2c-0.5,0-0.9,0.1-1.2,0.5c-0.3,0.4-0.5,0.8-0.4,1.3c0,0.5,0.1,1,0.4,1.3c0.3,0.3,0.8,0.5,1.3,0.5
		c0.3,0,0.6,0,0.9-0.1v-1.3h-1L111.3,39.1z"/>
	<path class="st1" d="M117.7,39.2c0,0.6-0.2,1.2-0.5,1.7c-0.8,0.8-2.1,0.8-3,0c-0.7-1-0.7-2.3,0-3.3c0.4-0.4,0.9-0.6,1.5-0.6
		c0.6,0,1.1,0.2,1.5,0.6C117.5,38,117.7,38.6,117.7,39.2 M114.2,39.2c0,0.5,0.1,1,0.4,1.4c0.6,0.6,1.6,0.6,2.2,0c0,0,0,0,0,0
		c0.5-0.8,0.5-1.9,0-2.7c-0.6-0.6-1.6-0.6-2.2,0C114.3,38.2,114.1,38.7,114.2,39.2L114.2,39.2z"/>
	<path class="st1" d="M121.1,37h0.5l-1.6,4.4h-0.5L118,37h0.5l1,2.8c0.1,0.3,0.2,0.6,0.3,0.9c0.1-0.3,0.2-0.7,0.3-1L121.1,37z"/>
	<polygon class="st1" points="124.8,41.4 122.3,41.4 122.3,37 124.7,37 124.7,37.4 122.8,37.4 122.8,38.8 124.7,38.8 124.7,39.3 
		122.8,39.3 122.8,40.9 124.8,40.9 	"/>
	<path class="st1" d="M126.2,39.6v1.8h-0.5V37h1.2c0.4,0,0.8,0.1,1.2,0.3c0.3,0.2,0.4,0.6,0.4,0.9c0,0.6-0.4,1.1-0.9,1.2l1.2,2h-0.6
		l-1.1-1.8C127.2,39.6,126.2,39.6,126.2,39.6z M126.2,39.1h0.7c0.3,0,0.6-0.1,0.8-0.2c0.2-0.2,0.3-0.4,0.3-0.6
		c0-0.2-0.1-0.5-0.3-0.6c-0.2-0.1-0.5-0.2-0.8-0.2h-0.7V39.1z"/>
	<path class="st1" d="M132.9,41.4h-0.6l-2.4-3.7c0,0.4,0,0.8,0,1.2v2.5h-0.5V37h0.6l2.4,3.7c0-0.2,0-0.3,0-0.5c0-0.2,0-0.4,0-0.6V37
		h0.5L132.9,41.4z"/>
	<path class="st1" d="M136.1,41.4l-1.5-3.9v1.1v2.8h-0.4V37h0.8l1.4,3.6l1.4-3.6h0.8v4.4H138v-2.8c0-0.3,0-0.7,0-1l-1.5,3.9H136.1z"
		/>
	<polygon class="st1" points="142.1,41.4 139.7,41.4 139.7,37 142.1,37 142.1,37.4 140.2,37.4 140.2,38.8 142,38.8 142,39.3 
		140.2,39.3 140.2,40.9 142.1,40.9 	"/>
	<path class="st1" d="M146.5,41.4h-0.6l-2.4-3.7c0,0.4,0,0.8,0,1.2v2.5h-0.5V37h0.5l2.4,3.7v-0.5c0-0.2,0-0.4,0-0.6V37h0.5
		L146.5,41.4z"/>
	<polygon class="st1" points="149.1,41.4 148.6,41.4 148.6,37.4 147.2,37.4 147.2,37 150.5,37 150.5,37.4 149.1,37.4 	"/>
	<path class="st0" d="M183.7,19.7c-1.1,0-2-0.3-2.7-0.8c-1.1-0.9-2.4-2.9-1.7-4.4c0.1-0.2,0.2-0.4,0.3-0.6c0.1-0.2,0.2-0.4,0.4-0.7
		c0.3-0.5,0.5-0.9,0.8-1.3c0.3-0.5,0.6-0.9,0.9-1.3c0.4-0.5,0.9-1,1.3-1.4c0.5-0.4,1-0.7,1.4-0.9c0.3-0.1,0.6-0.2,0.9-0.3
		C185.7,8,186,8,186.2,8h0c1.8,0,3,0.5,3.7,1.6c0.6,0.9,0.9,2.2,0.7,3.8c-0.1,0.8-0.3,1.6-0.6,2.3c-0.3,0.7-0.7,1.4-1.2,1.9
		c-0.5,0.6-1.1,1-1.8,1.4c-0.6,0.3-1.4,0.5-2.2,0.6C184.5,19.7,184.1,19.7,183.7,19.7z M186.1,8.4c-0.3,0-0.4,0.1-0.6,0.1
		c-0.3,0.1-0.5,0.1-0.8,0.3c-0.5,0.2-1,0.4-1.4,0.8c-0.4,0.4-0.9,0.7-1.3,1.2c-0.3,0.4-0.8,0.8-1,1.3c-0.2,0.4-0.4,0.8-0.7,1.3
		c-0.1,0.2-0.2,0.5-0.3,0.7c-0.1,0.2-0.1,0.3-0.2,0.6c-0.6,1.3,0.5,3.2,1.6,4c0.6,0.5,1.4,0.7,2.5,0.7c0.3,0,0.7,0,1.1-0.1
		c0.8-0.1,1.6-0.2,2.2-0.5c0.9-0.5,1.2-0.8,1.6-1.3c0.5-0.5,0.8-1.1,1.1-1.8c0.3-0.7,0.5-1.4,0.5-2.2c-0.1-1.7-0.2-2.6-0.8-3.4
		c-0.7-1-1.5-1.5-3.1-1.5H186.1z"/>
</g>
<g id="圖層_2">
	<g>
		<g>
			<defs>
				<path id="SVGID_1_" d="M21.1,6c5.7-0.5,8.6,0.8,7.8,4.7c2.4-3.2,4-7.2-3.1-9C24.4,3,22.6,4.8,21.1,6"/>
			</defs>
			<clipPath id="SVGID_2_">
				<use xlink:href="#SVGID_1_"  style="overflow:visible;"/>
			</clipPath>
			
				<linearGradient id="SVGID_3_" gradientUnits="userSpaceOnUse" x1="-187.603" y1="435.8313" x2="-186.3537" y2="435.8313" gradientTransform="matrix(-8.3315 -7.5017 -7.5017 8.3315 1738.2844 -5027.9253)">
				<stop  offset="0" style="stop-color:#C94F1B"/>
				<stop  offset="0.41" style="stop-color:#FAB900"/>
				<stop  offset="1" style="stop-color:#FABA00"/>
			</linearGradient>
			<polygon class="st2" points="27.7,16.6 16.6,6.7 26.4,-4.2 37.4,5.8 			"/>
		</g>
		<g>
			<defs>
				<path id="SVGID_4_" d="M8.2,21.8c-3.2,9.1,17-1.2,20.7-10.7C20.4,19.3,11,23,8.2,21.8"/>
			</defs>
			<clipPath id="SVGID_5_">
				<use xlink:href="#SVGID_4_"  style="overflow:visible;"/>
			</clipPath>
			
				<linearGradient id="SVGID_6_" gradientUnits="userSpaceOnUse" x1="-153.7807" y1="400.4333" x2="-152.5312" y2="400.4333" gradientTransform="matrix(17.7331 -1.24 -1.24 -17.7331 3231.0132 6931.8706)">
				<stop  offset="0" style="stop-color:#AB4419"/>
				<stop  offset="0.1156" style="stop-color:#CA720F"/>
				<stop  offset="0.28" style="stop-color:#FABA00"/>
				<stop  offset="0.7435" style="stop-color:#EDA800"/>
				<stop  offset="0.78" style="stop-color:#ECA600"/>
				<stop  offset="0.9161" style="stop-color:#C26710"/>
				<stop  offset="1" style="stop-color:#AB4419"/>
			</linearGradient>
			<polygon class="st3" points="3.6,11.2 28.8,9.4 30.3,30.7 5.1,32.5 			"/>
		</g>
		<g>
			<defs>
				<path id="SVGID_7_" d="M33.9,8.9C24.3,9.4,7,16.6,8.2,21.8c3-4.7,30.9-15.1,30.4-6c3.2-4.7,1.2-6.7-2.9-6.9H33.9z"/>
			</defs>
			<clipPath id="SVGID_8_">
				<use xlink:href="#SVGID_7_"  style="overflow:visible;"/>
			</clipPath>
			
				<linearGradient id="SVGID_9_" gradientUnits="userSpaceOnUse" x1="-163.8542" y1="433.8777" x2="-162.6049" y2="433.8777" gradientTransform="matrix(-25.6115 0 0 25.6115 -4156.3604 -11098.0049)">
				<stop  offset="0" style="stop-color:#9F0038"/>
				<stop  offset="0.25" style="stop-color:#E00078"/>
				<stop  offset="1" style="stop-color:#E2007A"/>
			</linearGradient>
			<rect x="7" y="6.7" class="st4" width="34.7" height="15.1"/>
		</g>
		<g>
			<defs>
				<path id="SVGID_10_" d="M22,21.8c-6.1,7.9,14.5,4.9,16.5-5.8C36.3,19.7,23.4,27.1,22,21.8"/>
			</defs>
			<clipPath id="SVGID_11_">
				<use xlink:href="#SVGID_10_"  style="overflow:visible;"/>
			</clipPath>
			
				<linearGradient id="SVGID_12_" gradientUnits="userSpaceOnUse" x1="-150.4777" y1="395.716" x2="-149.2285" y2="395.716" gradientTransform="matrix(14.0755 0 0 -14.0755 2138.926 5592.751)">
				<stop  offset="0" style="stop-color:#8C052B"/>
				<stop  offset="7.578820e-02" style="stop-color:#A60343"/>
				<stop  offset="0.25" style="stop-color:#E00078"/>
				<stop  offset="1" style="stop-color:#E2007A"/>
			</linearGradient>
			<rect x="15.9" y="16" class="st5" width="22.5" height="13.6"/>
		</g>
		<g>
			<defs>
				<path id="SVGID_13_" d="M22.1,21.7c9.5-5.9,13.4-2.2,7.2,5.6c8.7-6.9,6.2-11.1,1.7-11.1C28.1,16.2,24.3,17.9,22.1,21.7"/>
			</defs>
			<clipPath id="SVGID_14_">
				<use xlink:href="#SVGID_13_"  style="overflow:visible;"/>
			</clipPath>
			
				<linearGradient id="SVGID_15_" gradientUnits="userSpaceOnUse" x1="-187.0775" y1="440.3165" x2="-185.8285" y2="440.3165" gradientTransform="matrix(-8.7116 -6.0999 -6.0999 8.7116 1090.5479 -4952.375)">
				<stop  offset="0" style="stop-color:#00483F"/>
				<stop  offset="4.603259e-02" style="stop-color:#0A5147"/>
				<stop  offset="0.1247" style="stop-color:#256A5B"/>
				<stop  offset="0.2266" style="stop-color:#52927C"/>
				<stop  offset="0.34" style="stop-color:#8BC6A7"/>
				<stop  offset="1" style="stop-color:#8DC9AB"/>
			</linearGradient>
			<polygon class="st6" points="32.7,34.7 16.7,23.5 27.3,8.4 43.3,19.6 			"/>
		</g>
		<g>
			<defs>
				<path id="SVGID_16_" d="M9.3,41.1C5,52.8,24.2,40.1,29.4,27.6C23.9,33,10.8,44.7,9.3,41.1"/>
			</defs>
			<clipPath id="SVGID_17_">
				<use xlink:href="#SVGID_16_"  style="overflow:visible;"/>
			</clipPath>
			
				<linearGradient id="SVGID_18_" gradientUnits="userSpaceOnUse" x1="-150.6684" y1="400.991" x2="-149.4194" y2="400.991" gradientTransform="matrix(17.6206 1.5416 1.5416 -17.6206 2044.1309 7337.2729)">
				<stop  offset="0" style="stop-color:#00483F"/>
				<stop  offset="4.603259e-02" style="stop-color:#0A5147"/>
				<stop  offset="0.1247" style="stop-color:#256A5B"/>
				<stop  offset="0.2266" style="stop-color:#52927C"/>
				<stop  offset="0.34" style="stop-color:#8BC6A7"/>
				<stop  offset="0.66" style="stop-color:#8BC8AA"/>
				<stop  offset="0.6796" style="stop-color:#80BEA2"/>
				<stop  offset="0.7878" style="stop-color:#498C78"/>
				<stop  offset="0.8811" style="stop-color:#226759"/>
				<stop  offset="0.9549" style="stop-color:#095046"/>
				<stop  offset="1" style="stop-color:#00483F"/>
			</linearGradient>
			<polygon class="st7" points="5.2,25.4 31.6,27.7 29.2,54.9 2.8,52.6 			"/>
		</g>
		<g>
			<defs>
				<path id="SVGID_19_" d="M9.3,41.1c3.4-7.8,36-21.2,31.1-3.6c7.7-8.6,3.5-12.1-4-12.1C26,25.4,9.4,32,9.3,41.1"/>
			</defs>
			<clipPath id="SVGID_20_">
				<use xlink:href="#SVGID_19_"  style="overflow:visible;"/>
			</clipPath>
			
				<linearGradient id="SVGID_21_" gradientUnits="userSpaceOnUse" x1="-169.7926" y1="427.2556" x2="-168.5439" y2="427.2556" gradientTransform="matrix(-22.9188 -17.2706 -17.2706 22.9188 3530.1243 -12683.6484)">
				<stop  offset="0" style="stop-color:#003F7D"/>
				<stop  offset="0.3063" style="stop-color:#007EC1"/>
				<stop  offset="0.36" style="stop-color:#0089CD"/>
				<stop  offset="0.78" style="stop-color:#008BD0"/>
				<stop  offset="0.8687" style="stop-color:#006BAD"/>
				<stop  offset="1" style="stop-color:#003F7D"/>
			</linearGradient>
			<polygon class="st8" points="34.1,59.8 -0.9,33.4 23.4,1.2 58.3,27.6 			"/>
		</g>
		<g>
			<defs>
				<path id="SVGID_22_" d="M40.4,37.5c-2.6,3.2-14.9,8.3-14-0.8C18.3,44.2,34.5,51.2,40.4,37.5"/>
			</defs>
			<clipPath id="SVGID_23_">
				<use xlink:href="#SVGID_22_"  style="overflow:visible;"/>
			</clipPath>
			
				<linearGradient id="SVGID_24_" gradientUnits="userSpaceOnUse" x1="-149.709" y1="393.2944" x2="-148.4597" y2="393.2944" gradientTransform="matrix(12.9935 0 0 -12.9935 1969.3807 5154.187)">
				<stop  offset="0" style="stop-color:#003F7D"/>
				<stop  offset="0.2042" style="stop-color:#007EC1"/>
				<stop  offset="0.24" style="stop-color:#0089CD"/>
				<stop  offset="1" style="stop-color:#008BD0"/>
			</linearGradient>
			<rect x="18.3" y="36.6" class="st9" width="22.1" height="14.5"/>
		</g>
		<g>
			<defs>
				<path id="SVGID_25_" d="M26.4,36.6c3-2.4,6.5-1,6.5,2.5l3.7-2.4c-0.6-2.4-2.5-3.8-4.6-3.8C30.1,32.9,28,34,26.4,36.6"/>
			</defs>
			<clipPath id="SVGID_26_">
				<use xlink:href="#SVGID_25_"  style="overflow:visible;"/>
			</clipPath>
			
				<linearGradient id="SVGID_27_" gradientUnits="userSpaceOnUse" x1="-205.4175" y1="435.7981" x2="-204.1683" y2="435.7981" gradientTransform="matrix(-4.6531 -5.9557 -5.9557 4.6531 1674.076 -3211.4775)">
				<stop  offset="0" style="stop-color:#003F7D"/>
				<stop  offset="0.15" style="stop-color:#00407E"/>
				<stop  offset="0.2987" style="stop-color:#006CAE"/>
				<stop  offset="0.39" style="stop-color:#0089CD"/>
				<stop  offset="1" style="stop-color:#008BD0"/>
			</linearGradient>
			<polygon class="st10" points="30.3,44 23.4,35.3 32.7,28 39.6,36.7 			"/>
		</g>
	</g>
</g>
</svg>
